<?xml version="1.0" encoding="UTF-8"?>
<svg id="_圖層_1" data-name="圖層_1" xmlns="http://www.w3.org/2000/svg" xmlns:xlink="http://www.w3.org/1999/xlink" version="1.1" viewBox="0 0 200 200">
  <!-- Generator: Adobe Illustrator 30.1.0, SVG Export Plug-In . SVG Version: 2.1.1 Build 136)  -->
  <defs>
    <style>
      .st0 {
        fill: #ffbaba;
      }

      .st1 {
        fill: #f9d5d1;
      }

      .st2 {
        fill: url(#_未命名漸層);
      }

      .st3 {
        fill: #191b36;
      }

      .st4 {
        fill: #ffe5e5;
      }

      .st5 {
        fill: #e8f2ff;
      }

      .st5, .st6, .st7 {
        isolation: isolate;
      }

      .st5, .st7 {
        mix-blend-mode: multiply;
      }

      .st8 {
        fill: #5a90e0;
      }

      .st9 {
        fill: #f9b8b8;
      }

      .st10 {
        fill: #3f4883;
      }

      .st11 {
        fill: #fff;
      }

      .st12 {
        fill: #ff8787;
      }

      .st13 {
        fill: #1f3d7a;
      }

      .st14 {
        fill: #f9ccc7;
      }

      .st7 {
        fill: #d3e0f0;
      }

      .st15 {
        fill: #b34d4d;
      }
    </style>
    <linearGradient id="_未命名漸層" data-name="未命名漸層" x1="98.8" y1="237" x2="98.8" y2="-58.6" gradientTransform="translate(0 202) scale(1 -1)" gradientUnits="userSpaceOnUse">
      <stop offset="0" stop-color="#f0f7ff"/>
      <stop offset="1" stop-color="#c4e6ff"/>
    </linearGradient>
  </defs>
  <g class="st6">
    <g id="Layer_1">
      <rect class="st2" x="-7.6" y="-9.5" width="212.8" height="209.5"/>
      <g>
        <path class="st7" d="M163,137c-2.6-6.6-6.1-13-10.4-19-2.4-3.5-5.1-6.8-8.1-10-.2-.2-.3-.4-.5-.6h0c0,0-.1,0-.1,0-.2-.1-.5-.3-.8-.4h0c0,0-.1,0-.2-.1-.9-.4-1.9-.9-2.9-1.3-.5-.2-1.1-.4-1.6-.7h0c-.5-.2-.9-.4-1.4-.5-.4-.1-.8-.3-1.1-.4h0c-5.2-1.8-10.9-3.4-14.8-4.3h0c-.3,0-.6-.2-.9-.2-.2-.3-.4-.6-.6-.9h0c-1.1-1.5-2.2-2.8-3.6-3.9-.3-.2-.6-.5-.9-.7,0,0,0,0-.1,0-.2,0-.3-.2-.4-.3h0c-1.1-.8-2.4-1.4-3.7-1.8h0c-.5-.2-1-.3-1.5-.4h0c0,0-.1,0-.2,0-.4,0-.8-.2-1.3-.2-2.6-.4-5,0-7.2.9-1.1-.4-2.2-.7-3.4-.9-1.8-.3-3.6-.1-5.2.3h0c-.3,0-.7.2-1,.3-1.3.4-2.5,1.1-3.6,1.8-.3.2-.6.4-.9.7q-.2.2,0,0c-.1,0-.3.2-.4.3-.6.5-1.1,1-1.6,1.5-.7.8-1.4,1.6-2.1,2.4q-.4.5,0,0c-.2.3-.4.6-.6.8h0c-.2,0-.4,0-.6,0h0c-4,.7-10.2,1.8-16,3.2h0c-1.7.4-3.4.9-4.9,1.4h0c-2.2.7-4.2,1.4-5.9,2.2,0,0-.1,0-.2,0,0,0,0,0-.1,0-.5.2-.9.5-1.3.7,0,0,0,0,0,0h0c-.2,0-.3.2-.5.3h0s0,0,0,0h0c-.5.3-.9.7-1.2,1-.2.2-.3.3-.4.5,0,.2-.2.3-.3.5,0,0,0,.1-.1.2-.3.4-.7.8-1,1.1-8.6,10.2-13.8,23.7-16.3,37.2-.3,1.7-.6,3.4-.8,5.1-1.3,9.8-1.1,19.4.3,27.5,0,.3.1.6.2.9,0,.3.1.6.2.9,0,.2,0,.4.1.7.8,3.7,1.8,7,3.2,9.9.8,1.7,1.7,3.2,2.5,4.2,2.3,2.7,6,4.1,10.6,4.5,0,0,.1,0,.2,0,.3,0,.6,0,1,0,.2,0,.3,0,.5,0h0v.2c0,.2,0,.4,0,.5s0,.3,0,.4,0,.2,0,.3h0c0,.1,0,.3,0,.4,0,.2,0,.4,0,.7,0,.4,0,.8,0,1.3h0c-.2,3.2-.5,6.4-.8,9.7,0,.1,0,.3,0,.4-.2,1.5-.3,3-.5,4.5-.2,1.3-.3,2.6-.5,4,0,.4,0,.8-.2,1.1,0,.5-.1,1-.2,1.5-.1.7-.2,1.5-.3,2.2-.5,3.5-1.1,6.9-1.7,10.5h104.7c-.2-1.9-.5-3.7-.7-5.6-.1-1.1-.3-2.2-.4-3.2-.4-2.9-.7-5.9-1-8.8-.2-1.7-.3-3.3-.5-5-.1-1.5-.3-3-.4-4.5-.2-2.3-.4-4.5-.5-6.8,0-1.1-.2-2.1-.2-3.2,0-.4,0-.7,0-1.1,0-.2,0-.4,0-.7,0-.6,0-1.3-.1-1.9,5.2.5,9.4,0,11.8-2.1,2.9-2.5,5.1-6.4,6.8-11.2,5.3-15.6,3.9-32.5-2.4-48.3h-.1ZM85.7,98.6s0,0-.2,0h0s0,0-.2,0h-.2c.2-.3.5-.5.7-.8.7-.7,1.4-1.4,2.3-2h0c.8-.6,1.8-1.1,2.8-1.5h0s0,0,0,0c0,0,.2,0,.2,0,1.8-.7,3.7-.9,5.7-.6.2,0,.4,0,.6.1-.9.7-1.8,1.4-2.6,2.2-.4.5-.9.9-1.3,1.4-.3.4-.7.8-1,1.3h-7,0ZM96.3,98.6s0,0-.2,0h0s0,0-.2,0h-.2c.2-.3.5-.5.7-.8,1.1-1.2,2.5-2.3,4-3.1,1.9.9,3.6,2.2,5.1,3.8h-9.3,0ZM109.8,94.2c.2,0,.4.2.6.2,0,0,0,0,0,0,0,0,0,0,0,0h0s0,0,0,0c.7.3,1.4.6,2,1,1.3.8,2.5,1.9,3.6,3.1h-7.5c-.3-.4-.5-.7-.8-1.1-1.1-1.4-2.4-2.6-3.8-3.6-.2-.1-.3-.2-.5-.3,1.2-.2,2.5-.3,3.8,0,.8.1,1.6.3,2.3.6h0Z"/>
        <path class="st8" d="M90.8,93s-19.9,5.8-32,12.8c-12.1,7,7.1,92.5,7.1,92.5h68s10.8-90.3.2-96c-8.9-4.9-23.3-9.3-23.3-9.3h-20Z"/>
        <path class="st11" d="M146.1,239.5H50.2c2.4-13.3,4.4-26.4,5.2-38.6,0-.7,0-1.5.1-2.2,0-.5,0-1,0-1.4,0-.4,0-.7,0-1.1h0c0-.2,0-.3,0-.4,0-1.3,0-2.6.1-3.9,0-.1,0-.2,0-.4,0-.5,0-1,0-1.6,0-.9,0-1.7,0-2.6,0-2.3.1-4.5.2-6.7,0-2.6,0-5.2,0-7.7,0-.3,0-.6,0-1,0-.5,0-1,0-1.4,0-.5,0-1,0-1.4-.2-4.5-.5-8.9-.9-13.1,0-.3,0-.6,0-.9l-.2-2.2c0-.5,0-.9-.2-1.4,0-.8-.2-1.6-.2-2.4,0-.6-.1-1.2-.2-1.9-.3-2.4-.5-4.9-.8-7.2,0-.5-.1-1-.2-1.5,0-.3,0-.5,0-.8,0-.5-.1-1.1-.2-1.6s-.1-1.1-.2-1.6c0-1-.2-2-.3-2.9,0,0,0-.1,0-.2,0-.4,0-.9-.1-1.3,0-.2,0-.3,0-.5,0-.9-.1-1.7-.2-2.6,0-.3,0-.6,0-.9,0-.4,0-.9,0-1.3,0-.2,0-.5,0-.7,0-.2,0-.5,0-.7s0-.5,0-.7,0-.4,0-.7c0-.5,0-.9,0-1.4v-.5c0-1.2,0-2.4,0-3.6,0-.2,0-.5,0-.8,0-.4,0-.8,0-1.2,0-.2,0-.3,0-.5,0-.5.1-1.1.2-1.6,0-.4.1-.8.2-1.2,0-.1,0-.2,0-.4,0-.5.2-.9.3-1.4,0-.4.2-.7.3-1.1.2-.8.5-1.6.8-2.3.3-.8.7-1.6,1.2-2.3.1-.2.3-.4.4-.7.4-.5.9-1.1,1.6-1.5h0s0,0,0,0c5.8-4,22-7,29.5-8.2h0c.2,0,.3,0,.5,0,.6,0,1.2-.2,1.7-.3.6,0,1.1-.2,1.4-.2,0,0,0,0,0,0h.1c0,0,.1,0,.2,0h0s0,.2,0,.2h0s0,.2,0,.2v.2c0,0,.2.7.2.7l.9,4.3v.6c.1,0,8.3,39.1,8.3,39.1h0l.5-1.9v-.3c0,0,8.2-33.8,8.2-33.8l.7-2.8.2-.9,1-4.1.3-1.3h0c0,0,0-.1,0-.1h0c.3,0,.7.2,1.3.3.6.1,1.3.3,2.2.5.1,0,.2,0,.4,0,6,1.5,17.1,4.5,23.5,7.8,0,0,.1,0,.1,0,.5.4,1,1.4,1.3,2.9,0,.3.1.5.2.8,0,.2,0,.3,0,.5,0,.2,0,.3,0,.5,0,.2,0,.3,0,.5,0,.2,0,.3,0,.5,0,.2,0,.4,0,.6,0,0,0,.1,0,.2,0,.5,0,1,.1,1.5,0,.2,0,.3,0,.5,0,.8.1,1.7.1,2.6,0,.3,0,.5,0,.8,0,.3,0,.5,0,.8,0,.3,0,.7,0,1,0,.2,0,.4,0,.6v.3c0,.4,0,.9,0,1.3.1,10.4-.2,24.9-.2,41.4h0c0,2.9,0,5.8,0,8.7,0,1.6,0,3.3,0,5,0,.8,0,1.7,0,2.5,0,.4,0,.8,0,1.3s0,.8,0,1.3c0,.8,0,1.7,0,2.5,0,.9,0,1.9,0,2.8,0,.8,0,1.5,0,2.3,0,.9,0,1.7.1,2.6,0,.8,0,1.6.1,2.4s0,1.6.1,2.4c0,.9,0,1.7.1,2.6,0,1.1.1,2.1.2,3.1,0,.4,0,.8,0,1.1.9,13.6,2.5,27.1,4.4,39.6h0Z"/>
        <path class="st7" d="M122.3,184.1c-14.4,3.4-49,17.7-66.8,14.6.1-1,.1-1.9.2-2.9.2-5.2.3-10.2.4-15,.7-30-7.4-57.2-3-72.2,2.3-1.8,4.9-3.1,7.7-3.9l14.2,22.4c3.7,5.8-2.1,31-2.8,40.1,13.8-.9,33.4-5.4,46.2-4.3l2.8,15.8v.5c.1,0,1,4.9,1,4.9h0Z"/>
        <path class="st7" d="M127.7,104.7s-15.3-11.3-15.4-11.4l-1.5-.3-9.7,44.3-.9,1-.9-1-8.6-44.3-1.6.2-15.1,11.6,14.7,13.7-6.4,9.4c1.2.9,16.8,12.6,17.9,13.5,1.2-.8,18.1-12.6,19.3-13.5l-6.5-9.4,14.7-13.8h0Z"/>
        <polygon class="st11" points="83.3 125.7 89.4 116.8 76 104.8 90.6 93 90.7 93 100.1 138.3 83.3 125.7"/>
        <polygon class="st11" points="112.2 116.8 118.2 125.7 100.1 138.3 110.8 93 125.6 104.8 112.2 116.8"/>
        <path class="st11" d="M118.6,181.2c-17.3,4-63.7,23.9-75.2,10.4-.9-1.1-1.7-2.5-2.5-4.2-9-19.4-6.3-62.8,16.2-85.5l20.8,15.4c4.3,5.8-6.8,38.3-9.4,47.1,13.8-.9,33.4-5.4,46.2-4.3l2.8,15.8,1,5.4h0Z"/>
        <path class="st5" d="M118.6,181.2c-17.3,4-63.7,23.9-75.2,10.4-.9-1.1-1.7-2.5-2.5-4.2,17,14.2,76.8-11.1,76.8-11.1l.9,4.9h0Z"/>
        <path class="st1" d="M87.4,156.2s-7.6-3.5-16.4.2l-2.4,7.9c6-1.2,6.2,3.2,13.4,4.6l5.4-12.7h0Z"/>
        <path class="st7" d="M85.7,176.7l1.1-2.4-.5-.2-4.7-2.1c0,0,6.8-15.2,6.8-15.2l5.6,1.5.6-1.3c12.7,1.7,24.1,4.5,37.2,8.4,1.6-9-9.4-21-7.2-37.5l14.1-23.5c.4,0,.8.3,1.1.4,2.4,11-.7,50.4,1.7,90.9-16.6-1.4-43.6-13-55.8-18.9h0Z"/>
        <path class="st8" d="M96.2,156.3l-1.5,8.4-2.7,5.1-1.9,3.6-3.5-1.6-.5-.2-4.7-2.1c0,0,6.8-15.2,6.8-15.2l5.6,1.5,2.4.6h0Z"/>
        <path class="st11" d="M159.9,179.7c-1.6,4.9-3.8,8.7-6.8,11.2-9.9,8.5-51.6-9-67.5-16.8l1.1-2.4,1.6-3.7,5.5-12.4.6-1.3c12.7,1.7,25.7,4.3,38.8,8.2,1.6-9-14-34.3-9-39.2l14.3-21.5c20.4,22.1,30.3,51.6,21.4,77.8h0Z"/>
        <path class="st5" d="M159.9,179.7c-1.6,4.9-3.8,8.7-6.8,11.2-9.9,8.5-51.6-9-67.5-16.8l1.1-2.4,1.1-2.5s39.2,20,56.1,18.9c10.6-.7,16-8.5,16-8.5h0Z"/>
        <path class="st1" d="M117,158.4s14.9-9.8,20.9-2.8c3,3.5,5.5,8.6,3.2,11.8-1.9,2.6-4.7-3.7-8.1-4.9l-16.1-4.1h0Z"/>
        <path class="st14" d="M92.4,80.9c0,3.5-.2,10.3-2,12,2.6,14.5,16.2,16,20.6.2-2.9-3-2.2-8.9-2.2-12.2h-16.4,0Z"/>
        <path class="st13" d="M121.1,69.6c-1.1,1.4-8.9,2.4-9,2.6l-27.4,4.3c-26.6-13.7-18.2-50.4,1.4-51.3,3.6-6.3,28.2-7.5,37.5,7.1,7.3,11.5,2.6,32.3-2.5,37.3h0Z"/>
        <path class="st13" d="M124.8,57.1s2.2-5.5.4-9.2c0,0,1.3,2.6,1.4,5.3,1.1-2.8,2-7.6,0-12.4,0,0,.6.3.9,1.5.5-2-2.3-14-13.4-14.4-12.8-.5,5.7,17.4,5.7,21,0,3.6-1.5,13.5-1.5,13.5,0,0,5.1-2.1,6.4-5.2h0Z"/>
        <path class="st9" d="M81.9,72.3c-.7,0-1.4,0-2.1-.2-.5,0-1,0-1.4-.2-10.6-1.9-11.3-10.7-9.2-12.8,2.7-2.9,7.7-1,7.7-1l5,14.2h0Z"/>
        <path class="st9" d="M116.2,72.3l5-14.2s5-1.8,7.7,1c2,2.2,1.4,11-9.2,12.8-.4.1-.9.2-1.4.2-.7.1-1.4.2-2.1.2h0Z"/>
        <path class="st1" d="M126.4,54.2c0,16.1-11.7,31.4-25.5,31.4s-27-15.3-27-31.3,11.7-29.1,26.2-29.1,26.2,13,26.2,29.1Z"/>
        <path class="st10" d="M131.2,53.1h0c0,0,0,0,0,0h0Z"/>
        <path class="st4" d="M93.3,60.1c0,1.7-1.2,3-2.6,3-1.4,0-2.5-1.4-2.5-3.1,0-1.7,1.2-3,2.6-3,1.4,0,2.5,1.4,2.5,3.1Z"/>
        <path class="st13" d="M92.7,60.1c0,1.3-1,2.4-2.1,2.4s-2-1.1-1.9-2.5c0-1.3,1-2.4,2.1-2.4s2,1.1,1.9,2.5Z"/>
        <path class="st3" d="M92,60.1c0,.8-.6,1.5-1.3,1.5-.7,0-1.2-.7-1.2-1.5s.6-1.5,1.3-1.5c.7,0,1.2.7,1.2,1.5Z"/>
        <path class="st11" d="M89.4,59.2c0-.3.3-.5.6-.5s.6.3.6.6-.3.5-.6.5-.6-.3-.6-.6Z"/>
        <path class="st11" d="M90.8,58.6c0-.1.1-.2.3-.2.1,0,.2.1.2.3,0,.1-.1.2-.3.2-.1,0-.2-.1-.2-.3Z"/>
        <path class="st4" d="M108.2,60.5c.1,1.7,1.4,3,2.8,2.9,1.4,0,2.4-1.5,2.3-3.2-.1-1.7-1.4-3-2.8-2.9-1.4,0-2.4,1.5-2.3,3.2Z"/>
        <path class="st13" d="M108.8,60.5c0,1.3,1.1,2.3,2.2,2.3,1.1,0,1.9-1.2,1.8-2.5,0-1.3-1.1-2.3-2.2-2.3-1.1,0-1.9,1.2-1.8,2.5Z"/>
        <path class="st3" d="M109.5,60.4c0,.8.7,1.5,1.4,1.4.7,0,1.2-.8,1.2-1.6,0-.8-.7-1.5-1.4-1.4-.7,0-1.2.8-1.2,1.6Z"/>
        <path class="st11" d="M112.1,59.4c0-.3-.3-.5-.6-.5s-.5.3-.5.6c0,.3.3.5.6.5s.5-.3.5-.6Z"/>
        <path class="st13" d="M92.8,54.7c-1.3-1.1-3.3-1-4.6.1-.2.2-.2.6,0,.8.2.2.5.2.8,0,.4-.4,1-.6,1.6-.6.6,0,1.2.2,1.7.6.2.2.6,0,.7-.2.2-.3,0-.6-.2-.7Z"/>
        <path class="st13" d="M113,55.4c-1.4-1-3.3-.9-4.6.2-.2.2-.2.6,0,.8.2.2.5.2.8,0,.4-.4,1-.6,1.6-.6.6,0,1.2.2,1.7.6.2.2.6,0,.7-.2.2-.3,0-.6-.2-.7h0Z"/>
        <path class="st11" d="M110.3,58.7c.1,0,.3,0,.3,0,0,.1,0,.3,0,.3-.1,0-.3,0-.3,0,0-.1,0-.3,0-.3Z"/>
        <path class="st0" d="M116.1,66.7c0,1.4-1.8,2.5-3.9,2.5s-3.9-1.1-3.9-2.5,1.8-2.5,3.9-2.5,3.9,1.1,3.9,2.5Z"/>
        <path class="st0" d="M93.2,66.7c0,1.4-1.8,2.5-3.9,2.5s-3.9-1.1-3.9-2.5,1.8-2.5,3.9-2.5,3.9,1.1,3.9,2.5Z"/>
        <path class="st0" d="M101.8,64.5c-.1-.2-.3-.4-.3-.6,0-.1-.2-.1-.2,0,0,.2,0,.5,0,.7,0,.1,0,.2.1.3,0,0,0,0,0,.1,0,0,0,0,0,.1,0,0,0,0,0,0,0,0,0,0,0,0,0,0,0,0,0,0h0c0,0,0,0,0,0,0,0,0,0,0,0s0,0,0,0c0,0,0,0,0,0s0,0,0,0h-.1s0,0,0,0c0,0,0,0,0,0,0,0,0,0,0,0,0,0,0,0,0,0h0s0,0,0,0c0,0,0,0-.1,0,0,0,0,0,0,0h0c0,0-.2,0-.3,0-.2,0-.2.2-.2.4,0,.2.2.3.4.4.2,0,.3,0,.4.1.3,0,.6,0,.8-.2h0s0,0,0,0c0,0,0,0,0,0,0,0,0,0,.1-.2,0-.1.1-.2.1-.4,0-.2,0-.4-.2-.6h0Z"/>
        <path class="st13" d="M73.1,58s5.6-4,6.2-12.2c0,0,1.4,2.2.9,3.9,0,0,8.6-6.5,8.3-13.4,3.1,4.9,8.9,10.3,18.8,10,0,0-2.4-2.9-2.4-4.2,0,0,5.3,5.9,11.2,7,0,0-.3-2-.2-3.5,2.3,5.2,5.6,9.6,10.3,12.8.6-5.1.2-10.6-.6-16.3,0,0-8.3-18-26.8-18s-27.5,15.3-25.7,33.9h0Z"/>
        <path class="st15" d="M105.1,74.8c0,1.2-.5,2.3-1.3,3.1-.9.9-2.2,1.4-3.6,1.4s-2.8-.6-3.8-1.6c-.7-.8-1.2-1.8-1.2-2.9,0-2.5,3.1-.3,4.9-.3s4.9-2.2,4.9.3h0Z"/>
        <path class="st12" d="M103.8,77.8c-.9.9-2.2,1.4-3.6,1.4s-2.8-.6-3.8-1.6c.7-.7,2.1-1.2,3.6-1.2s3.1.6,3.7,1.4h0Z"/>
      </g>
    </g>
  </g>
</svg>