<?xml version="1.0" encoding="UTF-8"?>
<svg id="_圖層_1" xmlns="http://www.w3.org/2000/svg" xmlns:xlink="http://www.w3.org/1999/xlink" version="1.1" viewBox="0 0 200 200">
  <!-- Generator: Adobe Illustrator 30.1.0, SVG Export Plug-In . SVG Version: 2.1.1 Build 136)  -->
  <defs>
    <style>
      .st0 {
        fill: #ffbaba;
      }

      .st1 {
        fill: #f9d5d1;
      }

      .st2 {
        fill: url(#_未命名漸層);
      }

      .st3 {
        fill: #191b36;
      }

      .st4 {
        fill: #ffe5e5;
      }

      .st5 {
        fill: #e8f2ff;
      }

      .st5, .st6, .st7 {
        isolation: isolate;
      }

      .st5, .st7 {
        mix-blend-mode: multiply;
      }

      .st8 {
        fill: #5a90e0;
      }

      .st9 {
        fill: #3f4883;
      }

      .st10 {
        fill: #fff;
      }

      .st11 {
        fill: #ff8787;
      }

      .st12 {
        fill: #1f3d7a;
      }

      .st13 {
        fill: #f9ccc7;
      }

      .st7 {
        fill: #d3e0f0;
      }

      .st14 {
        fill: #b34d4d;
      }
    </style>
    <linearGradient id="_未命名漸層" data-name="未命名漸層" x1="98.8" y1="531" x2="98.8" y2="826.6" gradientTransform="translate(0 -566)" gradientUnits="userSpaceOnUse">
      <stop offset="0" stop-color="#f0f7ff"/>
      <stop offset="1" stop-color="#c4e6ff"/>
    </linearGradient>
  </defs>
  <g class="st6">
    <g id="Layer_1">
      <rect class="st2" x="-7.6" y="-9.5" width="212.8" height="209.5"/>
      <g>
        <path class="st12" d="M115.2,24.6c-3.1-1.9-7-2.6-12-1.9-2.4-1.5-8.2-2.7-14.3,0-3.3,1.4-6.7,4-9.7,8.3-2.4,2.5-4.4,5.4-6.1,8.5-2.4,4.4-4.1,9.3-5.2,14.3-1.2,5.4-1.7,10.9-1.7,16.4,0,5.7.1,11.6,2.2,16.9,1.5,3.8,4.1,7.4,7.6,9.4.7.5,1.5,1,2.5,1.4,2.3,1,5.2,1.6,8.5,2,1.9.2,4,.3,6.2.4,6.4.1,13.7-.5,20.5-1.7.4,0,.8-.1,1.1-.2,2-.4,3.7-.7,5.4-1.1,4.6-1.1,8.2-2.4,11.6-4.3h0c1.9-1,5.6-3.6,5.6-3.6.4-.3.8-1.3,1.3-1.6-12.1-11.9-6.8-52.9-23.6-62.9ZM73.9,94c-1.8-1.6-3.2-3.7-4.3-6-2.4-5.1-2.7-10.9-2.7-16.4,0-5.3.4-10.7,1.3-16,.9-5,2.4-9.9,4.6-14.5,1.4-2.9,3.2-5.7,5.2-8.3-1.6,2.7-3.1,6-4.4,9.9-3.1,9.7-8.9,37.3.3,51.2Z"/>
        <path class="st7" d="M163,137c-2.6-6.6-6.1-13-10.4-19-2.4-3.5-5.1-6.8-8.1-10-.2-.2-.3-.4-.5-.6h-.1c-.2,0-.5-.3-.8-.4h0s-.1,0-.2,0c-.9-.4-1.9-.9-2.9-1.3-.5-.2-1.1-.4-1.6-.7h0c-.5-.2-.9-.4-1.4-.5-.4,0-.8-.3-1.1-.4h0c-5.2-1.8-10.9-3.4-14.8-4.3h0c-.3,0-.6-.2-.9-.2-.2-.3-.4-.6-.6-.9h0c-1.1-1.5-2.2-2.8-3.6-3.9-.3-.2-.6-.5-.9-.7h0c-.2,0-.3-.2-.4-.3h0c-1.1-.8-2.4-1.4-3.7-1.8h0c-.5-.2-1-.3-1.5-.4h-.2c-.4,0-.8-.2-1.3-.2-2.6-.4-5,0-7.2.9-1.1-.4-2.2-.7-3.4-.9-1.8-.3-3.6,0-5.2.3h0c-.3,0-.7.2-1,.3-1.3.4-2.5,1.1-3.6,1.8-.3.2-.6.4-.9.7q-.1.1,0,0c0,0-.3.2-.4.3-.6.5-1.1,1-1.6,1.5-.7.8-1.4,1.6-2.1,2.4q-.3.3,0,0c-.2.3-.4.6-.6.8h-.6c-4,.7-10.2,1.8-16,3.2h0c-1.7.4-3.4.9-4.9,1.4h0c-2.2.7-4.2,1.4-5.9,2.2h-.3c-.5.2-.9.5-1.3.7h0c-.2,0-.3.2-.5.3h0c-.5.3-.9.7-1.2,1-.2.2-.3.3-.4.5,0,.2-.2.3-.3.5,0,0,0,0,0,.2-.3.4-.7.8-1,1.1-8.6,10.2-13.8,23.7-16.3,37.2-.3,1.7-.6,3.4-.8,5.1-1.3,9.8-1.1,19.4.3,27.5,0,.3,0,.6.2.9,0,.3,0,.6.2.9,0,.2,0,.4,0,.7.8,3.7,1.8,7,3.2,9.9.8,1.7,1.7,3.2,2.5,4.2,2.3,2.7,6,4.1,10.6,4.5h1.7v1.4h0v2.4h0c-.2,3.2-.5,6.4-.8,9.7v.4c-.2,1.5-.3,3-.5,4.5-.2,1.3-.3,2.6-.5,4,0,.4,0,.8-.2,1.1,0,.5,0,1-.2,1.5,0,.7-.2,1.5-.3,2.2-.5,3.5-1.1,6.9-1.7,10.5h104.7c-.2-1.9-.5-3.7-.7-5.6-.1-1.1-.3-2.2-.4-3.2-.4-2.9-.7-5.9-1-8.8-.2-1.7-.3-3.3-.5-5-.1-1.5-.3-3-.4-4.5-.2-2.3-.4-4.5-.5-6.8,0-1.1-.2-2.1-.2-3.2v-1.8c0-.6,0-1.3-.1-1.9,5.2.5,9.4,0,11.8-2.1,2.9-2.5,5.1-6.4,6.8-11.2,5.3-15.6,3.9-32.5-2.4-48.3h-.1l-.9.3ZM85.7,98.6h-.6c.2-.3.5-.5.7-.8.7-.7,1.4-1.4,2.3-2h0c.8-.6,1.8-1.1,2.8-1.5h.2c1.8-.7,3.7-.9,5.7-.6.2,0,.4,0,.6,0-.9.7-1.8,1.4-2.6,2.2-.4.5-.9.9-1.3,1.4-.3.4-.7.8-1,1.3h-7,.2ZM96.3,98.6h-.6c.2-.3.5-.5.7-.8,1.1-1.2,2.5-2.3,4-3.1,1.9.9,3.6,2.2,5.1,3.8h-9.3,0ZM109.8,94.2c.2,0,.4.2.6.2h0c.7.3,1.4.6,2,1,1.3.8,2.5,1.9,3.6,3.1h-7.5c-.3-.4-.5-.7-.8-1.1-1.1-1.4-2.4-2.6-3.8-3.6-.2,0-.3-.2-.5-.3,1.2-.2,2.5-.3,3.8,0,.8,0,1.6.3,2.3.6h.3Z"/>
        <path class="st8" d="M90.8,93s-19.9,5.8-32,12.8,7.1,92.5,7.1,92.5h68s10.8-90.3.2-96c-8.9-4.9-23.3-9.3-23.3-9.3h-20,0Z"/>
        <path class="st10" d="M146.1,239.5H50.2c2.4-13.3,4.4-26.4,5.2-38.6,0-.7,0-1.5,0-2.2v-2.5h0v-.4c0-1.3,0-2.6,0-3.9v-4.6c0-2.3,0-4.5.2-6.7v-11.5c-.2-4.5-.5-8.9-.9-13.1v-.9l-.2-2.2c0-.5,0-.9-.2-1.4,0-.8-.2-1.6-.2-2.4s0-1.2-.2-1.9c-.3-2.4-.5-4.9-.8-7.2,0-.5,0-1-.2-1.5v-.8c0-.5,0-1.1-.2-1.6s0-1.1-.2-1.6c0-1-.2-2-.3-2.9v-.2c0-.4,0-.9,0-1.3v-.5c0-.9,0-1.7-.2-2.6v-13c0-.5,0-1.1.2-1.6,0-.4,0-.8.2-1.2v-.4c0-.5.2-.9.3-1.4,0-.4.2-.7.3-1.1.2-.8.5-1.6.8-2.3.3-.8.7-1.6,1.2-2.3,0-.2.3-.4.4-.7.4-.5.9-1.1,1.6-1.5h0c5.8-4,22-7,29.5-8.2h.5c.6,0,1.2-.2,1.7-.3.6,0,1.1-.2,1.4-.2h.3v.2h0v.4l.2.7.9,4.3v.6c0,0,8.3,39.1,8.3,39.1h0l.5-1.9v-.3l8.2-33.8.7-2.8.2-.9,1-4.1.3-1.3h0c.3,0,.7,0,1.3.2.6,0,1.3.3,2.2.5h.4c6,1.5,17.1,4.5,23.5,7.8h.1c.5.4,1,1.4,1.3,2.9,0,.3.1.5.2.8v2.8c0,.5,0,1,.1,1.5v.5c0,.8.1,1.7.1,2.6v4.8c.1,10.4-.2,24.9-.2,41.4h0v26.4c0,.9,0,1.7.1,2.6,0,.8,0,1.6.1,2.4s0,1.6.1,2.4c0,.9,0,1.7.1,2.6,0,1.1.1,2.1.2,3.1v1.1c.9,13.6,2.5,27.1,4.4,39.6h0l1.3.5Z"/>
        <path class="st7" d="M122.3,184.1c-14.4,3.4-49,17.7-66.8,14.6,0-1,0-1.9.2-2.9.2-5.2.3-10.2.4-15,.7-30-7.4-57.2-3-72.2,2.3-1.8,4.9-3.1,7.7-3.9l14.2,22.4c3.7,5.8-2.1,31-2.8,40.1,13.8-.9,33.4-5.4,46.2-4.3l2.8,15.8v.5c0,0,1,4.9,1,4.9h.1Z"/>
        <path class="st7" d="M127.7,104.7s-15.3-11.3-15.4-11.4l-1.5-.3-9.7,44.3-.9,1-.9-1-8.6-44.3-1.6.2-15.1,11.6,14.7,13.7-6.4,9.4c1.2.9,16.8,12.6,17.9,13.5,1.2-.8,18.1-12.6,19.3-13.5l-6.5-9.4,14.7-13.8h0Z"/>
        <polygon class="st10" points="83.3 125.7 89.4 116.8 76 104.8 90.6 93 90.7 93 100.1 138.3 83.3 125.7"/>
        <polygon class="st10" points="112.2 116.8 118.2 125.7 100.1 138.3 110.8 93 125.6 104.8 112.2 116.8"/>
        <path class="st10" d="M118.6,181.2c-17.3,4-63.7,23.9-75.2,10.4-.9-1.1-1.7-2.5-2.5-4.2-9-19.4-6.3-62.8,16.2-85.5l20.8,15.4c4.3,5.8-6.8,38.3-9.4,47.1,13.8-.9,33.4-5.4,46.2-4.3l2.8,15.8,1,5.4h0Z"/>
        <path class="st5" d="M118.6,181.2c-17.3,4-63.7,23.9-75.2,10.4-.9-1.1-1.7-2.5-2.5-4.2,17,14.2,76.8-11.1,76.8-11.1l.9,4.9h0Z"/>
        <path class="st1" d="M87.4,156.2s-7.6-3.5-16.4.2l-2.4,7.9c6-1.2,6.2,3.2,13.4,4.6l5.4-12.7h0Z"/>
        <path class="st7" d="M85.7,176.7l1.1-2.4-.5-.2-4.7-2.1,6.8-15.2,5.6,1.5.6-1.3c12.7,1.7,24.1,4.5,37.2,8.4,1.6-9-9.4-21-7.2-37.5l14.1-23.5c.4,0,.8.3,1.1.4,2.4,11-.7,50.4,1.7,90.9-16.6-1.4-43.6-13-55.8-18.9h0Z"/>
        <path class="st8" d="M96.2,156.3l-1.5,8.4-2.7,5.1-1.9,3.6-3.5-1.6-.5-.2-4.7-2.1,6.8-15.2,5.6,1.5,2.4.6h0Z"/>
        <path class="st10" d="M159.9,179.7c-1.6,4.9-3.8,8.7-6.8,11.2-9.9,8.5-51.6-9-67.5-16.8l1.1-2.4,1.6-3.7,5.5-12.4.6-1.3c12.7,1.7,25.7,4.3,38.8,8.2,1.6-9-14-34.3-9-39.2l14.3-21.5c20.4,22.1,30.3,51.6,21.4,77.8h0Z"/>
        <path class="st5" d="M159.9,179.7c-1.6,4.9-3.8,8.7-6.8,11.2-9.9,8.5-51.6-9-67.5-16.8l1.1-2.4,1.1-2.5s39.2,20,56.1,18.9c10.6-.7,16-8.5,16-8.5h0Z"/>
        <path class="st1" d="M117,158.4s14.9-9.8,20.9-2.8,5.5,8.6,3.2,11.8c-1.9,2.6-4.7-3.7-8.1-4.9l-16.1-4.1h.1Z"/>
        <path class="st13" d="M92.4,80.9c0,3.5-.2,10.3-2,12,2.6,14.5,16.2,16,20.6.2-2.9-3-2.2-8.9-2.2-12.2h-16.4Z"/>
        <path class="st9" d="M248,53.1h0Z"/>
        <path class="st1" d="M80.7,60.9l3,10.6c-.1,0-.2,0-.3,0h0c-15-.7-16.2-18.1-5.9-16.1.4,2,2,3.7,3.2,5.4Z"/>
        <path class="st1" d="M119.9,72.8c-.4.1-.7.1-1.1.2,0-.2,1.7-9.5,1.8-10,1-1.8,1.9-3.8,2.6-5.9,8.9-3.1,11.1,11.8-3.3,15.6Z"/>
        <path class="st1" d="M125.4,55.5c-.7,36.9-45.4,43.1-48.9-1.5,2.2-42.5,51.2-34.3,48.9,1.5Z"/>
        <path class="st14" d="M105.8,71.5c0,1.1-.5,2.1-1.2,2.8-.8.8-2,1.3-3.3,1.3s-2.6-.6-3.4-1.5c-.7-.7-1.1-1.6-1.1-2.6,0-2.3,2.8-.3,4.5-.3s4.5-2,4.5.3Z"/>
        <path class="st11" d="M104.6,74.3c-.8.8-2,1.3-3.3,1.3s-2.6-.6-3.4-1.5c.7-.7,1.9-1.1,3.3-1.1s2.8.5,3.4,1.3Z"/>
        <path class="st4" d="M93.6,60.3c0,1.7-1.2,3-2.6,3-1.4,0-2.5-1.4-2.4-3.1,0-1.7,1.2-3,2.6-3,1.4,0,2.5,1.4,2.4,3.1Z"/>
        <path class="st12" d="M93.1,60.3c0,1.3-.9,2.4-2,2.3-1.1,0-2-1.1-1.9-2.4,0-1.3.9-2.4,2-2.3,1.1,0,2,1.1,1.9,2.4Z"/>
        <path class="st3" d="M92.4,60.3c0,.8-.6,1.5-1.3,1.5-.7,0-1.2-.7-1.2-1.5,0-.8.6-1.5,1.3-1.5.7,0,1.2.7,1.2,1.5Z"/>
        <path class="st10" d="M89.8,59.4c0-.3.3-.5.6-.5.3,0,.5.3.5.6,0,.3-.3.5-.6.5-.3,0-.5-.3-.5-.6Z"/>
        <path class="st10" d="M91.2,58.8c0-.1.1-.2.3-.2.1,0,.2.1.2.3,0,.1-.1.2-.3.2-.1,0-.2-.1-.2-.3Z"/>
        <path class="st4" d="M108.4,60.7c.1,1.7,1.3,2.9,2.7,2.8,1.4,0,2.4-1.5,2.3-3.2-.1-1.7-1.3-2.9-2.7-2.8-1.4,0-2.4,1.5-2.3,3.2Z"/>
        <path class="st12" d="M108.9,60.7c0,1.3,1.1,2.3,2.1,2.2,1.1,0,1.9-1.2,1.8-2.5,0-1.3-1.1-2.3-2.1-2.2-1.1,0-1.9,1.2-1.8,2.5Z"/>
        <path class="st3" d="M109.6,60.6c0,.8.7,1.4,1.3,1.4.7,0,1.2-.8,1.1-1.6,0-.8-.7-1.4-1.3-1.4-.7,0-1.2.8-1.1,1.6Z"/>
        <path class="st10" d="M112.1,59.6c0-.3-.3-.5-.6-.5-.3,0-.5.3-.5.6,0,.3.3.5.6.5.3,0,.5-.3.5-.6Z"/>
        <path class="st12" d="M93.2,54.9c-1.3-1.1-3.2-1-4.5.1-.2.2-.2.6,0,.8.2.2.5.2.8,0,.4-.4,1-.6,1.5-.6.6,0,1.2.2,1.7.6.2.2.6,0,.7-.2.2-.3,0-.6-.2-.7Z"/>
        <path class="st12" d="M113,55.6c-1.3-1-3.2-.9-4.5.2-.2.2-.2.6,0,.8.2.2.5.2.8,0,.4-.4,1-.6,1.5-.6.6,0,1.2.2,1.7.6.2.2.6,0,.7-.2.2-.3,0-.6-.2-.7Z"/>
        <path class="st10" d="M110.4,58.9c.1,0,.3,0,.3,0,0,.1,0,.3,0,.3-.1,0-.3,0-.3,0,0-.1,0-.3,0-.3Z"/>
        <path class="st0" d="M116.1,66.7c0,1.4-1.7,2.5-3.8,2.5s-3.8-1.1-3.8-2.5,1.7-2.5,3.8-2.5,3.8,1.1,3.8,2.5Z"/>
        <path class="st0" d="M93.5,66.7c0,1.4-1.7,2.5-3.8,2.5s-3.8-1.1-3.8-2.5,1.7-2.5,3.8-2.5,3.8,1.1,3.8,2.5Z"/>
        <path class="st0" d="M102,64.6c-.1-.2-.3-.4-.3-.6,0-.1-.2-.1-.2,0,0,.2,0,.5.1.7,0,.1,0,.2.1.3,0,0,0,0,0,.1,0,0,0,0,0,.1,0,0,0,0,0,0,0,0,0,0,0,0,0,0,0,0,0,0,0,0,0,0,0,0,0,0,0,0,0,0,0,0,0,0,0,0,0,0,0,0,0,0,0,0,0,0,0,0,0,0,0,0,0,0,0,0,0,0,0,0,0,0,0,0,0,0,0,0,0,0,0,0,0,0,0,0-.1,0,0,0,0,0,0,0,0,0,0,0,0,0,0,0,0,0,0,0,0,0,0,0,0,0,0,0,0,0-.1,0,0,0,0,0,0,0,0,0,0,0,0,0,0,0-.2,0-.3,0-.2,0-.2.2-.2.4,0,.2.2.3.4.4.1,0,.3,0,.4.1.3,0,.5,0,.7-.2,0,0,0,0,0,0,0,0,0,0,0,0,0,0,0,0,0,0,0,0,0,0,.1-.2,0-.1.1-.2.1-.4,0-.2,0-.4-.2-.6Z"/>
        <path class="st0" d="M101.9,65.9s0,0,0,0c0,0,0,0,0,0Z"/>
        <path class="st12" d="M125.5,64.7c-.3-.5-.6-1.1-.9-1.6-.8-1.5-1.4-3-1.9-4.5-3-9.1-1.7-17.4-13.5-23.8,9.3,2.5,12.9,12.9,14.8,22.2.3,1.5.5,2.9.8,4.3.1-.1.3-1.8.4-4.5,0-2.9,0-6.8-.5-11-1.2-9.7-4.7-20.5-14-22.1-11.8-4.7-23.2-.4-29.3,8.9-5.4,8.1-6.1,14.3-4.9,22.8.2,1.5.5,3.1.8,4.7,0,0,0,0,0,0-.2-1.2.5-1.5,1.7-1.5,1.5,0,3.7.3,5.7-.4,11.8,1.3,22.7-10.7,23.3-23.6,12.8,6.4,10.9,14.9,14.2,25.1.4,1.4,1,2.8,1.7,4.3,0,.1.2.3.3.5.3.4.8.9,1.1.9s.2-.2.2-.6ZM105.8,42.3c-3.4,9-11.7,15.2-20.5,15.6,7.6-2.7,18.6-10.9,22.2-21.9-.3,2.2-.9,4.3-1.7,6.3Z"/>
      </g>
    </g>
  </g>
</svg>